<?xml version="1.0" encoding="utf-8"?>
<!-- Generator: Adobe Illustrator 27.0.1, SVG Export Plug-In . SVG Version: 6.00 Build 0)  -->
<svg version="1.1" id="Ebene_1" xmlns="http://www.w3.org/2000/svg" xmlns:xlink="http://www.w3.org/1999/xlink" x="0px" y="0px"
	 viewBox="0 0 754.13 238.03" style="enable-background:new 0 0 754.13 238.03;" xml:space="preserve">
<style type="text/css">
	.st0{fill:#005AA0;}
	.st1{fill:url(#SVGID_1_);}
</style>
<g>
	<path class="st0" d="M259.87,138.32h14.34v1.81l-12.01,19.24h11.77v2.27h-14.85v-2.03l11.89-19.04h-11.14V138.32z"/>
	<path class="st0" d="M290.7,153.77h-11.33c0.06,1.78,0.39,3.17,1.01,4.17c0.84,1.36,2.1,2.03,3.78,2.03c1.25,0,2.25-0.39,2.99-1.18
		c0.27-0.3,0.56-0.74,0.87-1.33l2.29,0.27c-1.01,2.89-3.07,4.34-6.17,4.34c-2.03,0-3.7-0.66-5.01-1.98
		c-1.52-1.54-2.27-3.73-2.27-6.56c0-3.12,0.84-5.51,2.53-7.16c1.21-1.18,2.74-1.78,4.6-1.78c2.3,0,4.07,0.96,5.32,2.89
		c0.93,1.46,1.4,3.32,1.4,5.59C290.7,153.25,290.7,153.48,290.7,153.77z M288.15,151.83c-0.1-1.22-0.36-2.23-0.79-3.03
		c-0.75-1.44-1.91-2.15-3.47-2.15c-1.52,0-2.68,0.71-3.5,2.12c-0.46,0.77-0.78,1.79-0.96,3.06H288.15z"/>
	<path class="st0" d="M294.44,145.05h2.32c0.22,0.65,0.32,1.45,0.32,2.41c1.13-1.91,2.82-2.87,5.08-2.87c1.48,0,2.69,0.39,3.62,1.16
		c0.9,0.76,1.42,1.83,1.57,3.21c0.06,0.55,0.09,1.6,0.09,3.14v9.54H305v-9.38c0-1.93-0.14-3.21-0.43-3.85
		c-0.51-1.09-1.49-1.64-2.92-1.64c-1.57,0-2.77,0.66-3.61,1.97c-0.54,0.85-0.8,2.07-0.8,3.64v9.26h-2.43v-10.94
		c-0.01-2.24-0.04-3.61-0.09-4.1C294.69,146.18,294.59,145.66,294.44,145.05z"/>
	<path class="st0" d="M315.8,145.05h3.95l-0.03,1.98h-3.95l-0.15,8.43c-0.01,1.04-0.02,1.6-0.02,1.69c0,1.12,0.12,1.83,0.36,2.14
		c0.31,0.38,0.81,0.56,1.5,0.56c0.76,0,1.57-0.19,2.41-0.58l-0.03,2.17c-0.98,0.36-1.95,0.55-2.92,0.55c-1.69,0-2.83-0.5-3.42-1.5
		c-0.3-0.5-0.44-1.31-0.44-2.43c0-0.35,0.01-0.81,0.03-1.37c0.03-0.77,0.05-1.21,0.05-1.3l0.21-8.36h-2.51l0.03-1.98h2.53l0.1-4.79
		h2.39L315.8,145.05z"/>
	<path class="st0" d="M323.2,145.05h2.32c0.21,0.87,0.31,1.72,0.31,2.55c0,0.23-0.01,0.57-0.03,1.03c1.13-2.69,2.56-4.03,4.29-4.03
		c0.63,0,1.3,0.18,2.02,0.53v2.44c-0.93-0.43-1.68-0.65-2.24-0.65c-1.36,0-2.42,0.85-3.2,2.56c-0.48,1.07-0.72,2.65-0.72,4.73v7.43
		h-2.48v-10.87c-0.01-1.91-0.02-3.05-0.03-3.42C323.41,146.65,323.33,145.88,323.2,145.05z"/>
	<path class="st0" d="M334.81,145.05h2.43v10.15c0,1.65,0.19,2.77,0.58,3.35c0.58,0.89,1.53,1.33,2.84,1.33
		c1.47,0,2.59-0.62,3.35-1.86c0.48-0.77,0.72-1.96,0.72-3.55v-9.42h2.44v11.55c0,1.49,0.01,2.42,0.02,2.79
		c0.02,0.78,0.15,1.53,0.38,2.26h-2.41c-0.22-0.66-0.33-1.4-0.34-2.22c-0.4,0.74-0.83,1.3-1.3,1.67c-0.81,0.65-1.85,0.97-3.13,0.97
		c-1.36,0-2.51-0.33-3.45-0.99c-1.07-0.76-1.73-1.83-1.97-3.2c-0.1-0.59-0.15-1.49-0.15-2.68V145.05z"/>
	<path class="st0" d="M351.92,145.05h2.39c0.22,0.62,0.33,1.38,0.34,2.29c1.01-1.83,2.62-2.75,4.82-2.75c2.22,0,3.74,0.97,4.56,2.91
		c1.1-1.94,2.81-2.91,5.11-2.91c2.07,0,3.5,0.71,4.27,2.14c0.34,0.6,0.54,1.44,0.6,2.51c0.02,0.33,0.03,1.08,0.03,2.24v10.17h-2.43
		v-10.15c0-1.06-0.03-1.77-0.09-2.12c-0.25-1.73-1.3-2.6-3.14-2.6c-1.48,0-2.58,0.59-3.3,1.76c-0.44,0.73-0.67,1.82-0.67,3.28v9.83
		h-2.44v-9.78c-0.01-1.87-0.13-3.04-0.34-3.52c-0.49-1.05-1.44-1.57-2.84-1.57c-0.89,0-1.68,0.25-2.38,0.73
		c-1.09,0.78-1.64,2.26-1.64,4.46v9.67h-2.44v-11.47c-0.01-1.88-0.04-3.04-0.09-3.47C352.2,146.16,352.09,145.61,351.92,145.05z"/>
	<path class="st0" d="M390.68,145.05h4.14v1.98h-4.03v14.61h-2.58v-14.61h-2.34v-1.98h2.34v-1.06c0-1.28,0.06-2.21,0.17-2.8
		c0.21-1.08,0.71-1.92,1.5-2.51c0.75-0.56,1.66-0.84,2.73-0.84c0.76,0,1.65,0.17,2.65,0.51v2.26c-0.89-0.41-1.67-0.62-2.34-0.62
		c-1,0-1.66,0.45-1.98,1.35c-0.17,0.46-0.26,1.32-0.26,2.58V145.05z"/>
	<path class="st0" d="M397.7,145.05h2.43v10.15c0,1.65,0.19,2.77,0.58,3.35c0.58,0.89,1.53,1.33,2.84,1.33
		c1.47,0,2.59-0.62,3.35-1.86c0.48-0.77,0.72-1.96,0.72-3.55v-9.42h2.44v11.55c0,1.49,0.01,2.42,0.02,2.79
		c0.02,0.78,0.15,1.53,0.38,2.26h-2.41c-0.22-0.66-0.33-1.4-0.34-2.22c-0.4,0.74-0.83,1.3-1.3,1.67c-0.81,0.65-1.85,0.97-3.13,0.97
		c-1.36,0-2.51-0.33-3.45-0.99c-1.07-0.76-1.73-1.83-1.97-3.2c-0.1-0.59-0.15-1.49-0.15-2.68V145.05z M400.95,138.13
		c0.49,0,0.91,0.18,1.26,0.53c0.36,0.36,0.55,0.8,0.55,1.3c0,0.51-0.18,0.95-0.55,1.3c-0.35,0.36-0.78,0.55-1.28,0.55
		c-0.51,0-0.95-0.18-1.3-0.55c-0.36-0.35-0.55-0.78-0.55-1.28c0-0.52,0.18-0.96,0.55-1.32
		C399.99,138.31,400.43,138.13,400.95,138.13z M406.89,138.11c0.5,0,0.93,0.18,1.28,0.55c0.36,0.35,0.55,0.79,0.55,1.3
		c0,0.51-0.18,0.95-0.55,1.3c-0.36,0.36-0.8,0.55-1.3,0.55c-0.5,0-0.93-0.18-1.3-0.55c-0.36-0.36-0.55-0.8-0.55-1.3
		c0-0.51,0.18-0.95,0.55-1.3C405.94,138.29,406.38,138.11,406.89,138.11z"/>
	<path class="st0" d="M414.96,145.05h2.32c0.21,0.87,0.31,1.72,0.31,2.55c0,0.23-0.01,0.57-0.03,1.03c1.13-2.69,2.56-4.03,4.29-4.03
		c0.63,0,1.3,0.18,2.02,0.53v2.44c-0.93-0.43-1.68-0.65-2.24-0.65c-1.36,0-2.42,0.85-3.2,2.56c-0.48,1.07-0.72,2.65-0.72,4.73v7.43
		h-2.48v-10.87c-0.01-1.91-0.02-3.05-0.03-3.42C415.17,146.65,415.09,145.88,414.96,145.05z"/>
	<path class="st0" d="M435.52,138.32h2.61v13.72c0,1.48,0.03,2.51,0.09,3.08c0.17,1.75,0.84,2.99,2.02,3.71
		c0.99,0.6,2.17,0.91,3.54,0.91c1.36,0,2.53-0.3,3.52-0.91c1.17-0.73,1.85-1.97,2.02-3.71c0.06-0.57,0.09-1.6,0.09-3.08v-13.72h2.61
		v13.77c0,1.82-0.04,3.07-0.12,3.74c-0.16,1.53-0.74,2.81-1.73,3.85c-1.52,1.57-3.65,2.36-6.39,2.36c-2.76,0-4.89-0.79-6.41-2.36
		c-0.99-1.04-1.57-2.32-1.73-3.85c-0.08-0.67-0.12-1.92-0.12-3.74V138.32z"/>
	<path class="st0" d="M456.88,145.05h2.39c0.22,0.62,0.33,1.38,0.34,2.29c1.01-1.83,2.62-2.75,4.82-2.75c2.22,0,3.74,0.97,4.56,2.91
		c1.1-1.94,2.81-2.91,5.11-2.91c2.07,0,3.5,0.71,4.27,2.14c0.34,0.6,0.54,1.44,0.6,2.51c0.02,0.33,0.03,1.08,0.03,2.24v10.17h-2.43
		v-10.15c0-1.06-0.03-1.77-0.09-2.12c-0.25-1.73-1.3-2.6-3.14-2.6c-1.48,0-2.58,0.59-3.3,1.76c-0.44,0.73-0.67,1.82-0.67,3.28v9.83
		h-2.44v-9.78c-0.01-1.87-0.13-3.04-0.34-3.52c-0.49-1.05-1.44-1.57-2.84-1.57c-0.89,0-1.68,0.25-2.38,0.73
		c-1.09,0.78-1.64,2.26-1.64,4.46v9.67h-2.44v-11.47c-0.01-1.88-0.04-3.04-0.09-3.47C457.17,146.16,457.05,145.61,456.88,145.05z"/>
	<path class="st0" d="M482.02,145.05h2.53l3.55,13.14l3.9-13.14h2.1l3.88,13.14l3.57-13.14h2.53l-4.82,16.8h-2.39l-3.85-13.04
		l-3.81,13.04h-2.39L482.02,145.05z"/>
	<path class="st0" d="M520.03,153.77H508.7c0.06,1.78,0.39,3.17,1.01,4.17c0.84,1.36,2.1,2.03,3.78,2.03c1.25,0,2.25-0.39,2.99-1.18
		c0.27-0.3,0.56-0.74,0.87-1.33l2.29,0.27c-1.01,2.89-3.07,4.34-6.17,4.34c-2.03,0-3.7-0.66-5.01-1.98
		c-1.52-1.54-2.27-3.73-2.27-6.56c0-3.12,0.84-5.51,2.53-7.16c1.21-1.18,2.74-1.78,4.6-1.78c2.3,0,4.07,0.96,5.32,2.89
		c0.93,1.46,1.4,3.32,1.4,5.59C520.03,153.25,520.03,153.48,520.03,153.77z M517.48,151.83c-0.1-1.22-0.36-2.23-0.79-3.03
		c-0.75-1.44-1.91-2.15-3.47-2.15c-1.52,0-2.68,0.71-3.5,2.12c-0.46,0.77-0.78,1.79-0.96,3.06H517.48z"/>
	<path class="st0" d="M524.18,138.2h2.58v23.45h-2.58V138.2z"/>
	<path class="st0" d="M535.24,145.05h3.95l-0.03,1.98h-3.95l-0.15,8.43c-0.01,1.04-0.02,1.6-0.02,1.69c0,1.12,0.12,1.83,0.36,2.14
		c0.31,0.38,0.81,0.56,1.5,0.56c0.76,0,1.57-0.19,2.41-0.58l-0.03,2.17c-0.98,0.36-1.95,0.55-2.92,0.55c-1.69,0-2.83-0.5-3.42-1.5
		c-0.3-0.5-0.44-1.31-0.44-2.43c0-0.35,0.01-0.81,0.03-1.37c0.03-0.77,0.05-1.21,0.05-1.3l0.21-8.36h-2.51l0.03-1.98h2.53l0.1-4.79
		h2.39L535.24,145.05z"/>
	<path class="st0" d="M545.71,145.05h4.14v1.98h-4.03v14.61h-2.58v-14.61h-2.34v-1.98h2.34v-1.06c0-1.28,0.06-2.21,0.17-2.8
		c0.21-1.08,0.71-1.92,1.5-2.51c0.75-0.56,1.66-0.84,2.73-0.84c0.76,0,1.65,0.17,2.65,0.51v2.26c-0.89-0.41-1.67-0.62-2.34-0.62
		c-1,0-1.66,0.45-1.98,1.35c-0.17,0.46-0.26,1.32-0.26,2.58V145.05z"/>
	<path class="st0" d="M559.08,144.59c1.94,0,3.57,0.69,4.9,2.07c1.56,1.62,2.34,3.85,2.34,6.68c0,2.81-0.78,5.04-2.34,6.67
		c-1.32,1.38-2.95,2.07-4.89,2.07c-1.98,0-3.62-0.69-4.92-2.07c-1.56-1.65-2.34-3.92-2.34-6.8c0-1.8,0.38-3.41,1.13-4.84
		c0.72-1.37,1.71-2.38,2.97-3.03C556.91,144.84,557.96,144.59,559.08,144.59z M559.08,146.69c-1.36,0-2.44,0.54-3.26,1.62
		c-0.97,1.29-1.45,2.93-1.45,4.92c0,2.12,0.48,3.82,1.45,5.11c0.82,1.08,1.91,1.62,3.26,1.62c1.36,0,2.44-0.54,3.26-1.62
		c0.97-1.29,1.45-2.96,1.45-5.01c0-2.08-0.48-3.76-1.45-5.02C561.51,147.23,560.42,146.69,559.08,146.69z"/>
	<path class="st0" d="M570.22,145.05h2.32c0.21,0.87,0.31,1.72,0.31,2.55c0,0.23-0.01,0.57-0.03,1.03c1.13-2.69,2.56-4.03,4.29-4.03
		c0.63,0,1.3,0.18,2.02,0.53v2.44c-0.93-0.43-1.68-0.65-2.24-0.65c-1.36,0-2.42,0.85-3.2,2.56c-0.48,1.07-0.72,2.65-0.72,4.73v7.43
		h-2.48v-10.87c-0.01-1.91-0.02-3.05-0.03-3.42C570.43,146.65,570.35,145.88,570.22,145.05z"/>
	<path class="st0" d="M592.9,149.61h-2.38c-0.11-0.95-0.39-1.64-0.82-2.08c-0.58-0.59-1.44-0.89-2.56-0.89
		c-0.97,0-1.76,0.25-2.38,0.75c-0.54,0.43-0.8,1.01-0.8,1.74c0,0.67,0.25,1.2,0.75,1.57c0.47,0.34,1.5,0.75,3.09,1.23
		c1.64,0.48,2.76,0.89,3.37,1.25c1.33,0.78,2,2.01,2,3.71c0,1.5-0.49,2.72-1.47,3.66c-1.07,1.01-2.58,1.52-4.53,1.52
		c-1.89,0-3.4-0.44-4.51-1.32c-1.17-0.93-1.76-2.35-1.76-4.26h2.36c0.22,2.35,1.5,3.52,3.86,3.52c1,0,1.82-0.23,2.44-0.7
		c0.72-0.52,1.08-1.26,1.08-2.22c0-0.84-0.35-1.49-1.04-1.93c-0.41-0.25-1.65-0.69-3.71-1.33c-1.68-0.51-2.81-1.1-3.42-1.76
		c-0.67-0.74-1.01-1.67-1.01-2.79c0-1.5,0.58-2.68,1.74-3.52c1.07-0.79,2.39-1.18,3.95-1.18c2.24,0,3.86,0.69,4.85,2.08
		C592.54,147.41,592.83,148.39,592.9,149.61z"/>
	<path class="st0" d="M609.24,150.45h-2.43c-0.18-1.07-0.44-1.87-0.79-2.39c-0.59-0.91-1.53-1.37-2.8-1.37
		c-1.32,0-2.34,0.51-3.06,1.52c-0.92,1.3-1.38,3.01-1.38,5.14c0,2.57,0.63,4.47,1.88,5.67c0.65,0.63,1.53,0.94,2.63,0.94
		c2.15,0,3.37-1.34,3.64-4.03h2.44c-0.14,1.73-0.62,3.12-1.45,4.15c-1.05,1.32-2.6,1.98-4.65,1.98c-1.83,0-3.37-0.61-4.6-1.83
		c-1.62-1.61-2.43-3.9-2.43-6.87c0-3.06,0.85-5.43,2.55-7.09c1.15-1.13,2.65-1.69,4.49-1.69c2.2,0,3.83,0.83,4.9,2.48
		C608.76,147.94,609.11,149.07,609.24,150.45z"/>
	<path class="st0" d="M613.53,138.2h2.43v8.8c1.21-1.61,2.8-2.41,4.77-2.41c1.22,0,2.28,0.28,3.18,0.84
		c1.01,0.64,1.66,1.6,1.95,2.87c0.14,0.64,0.21,1.91,0.21,3.81v9.54h-2.43v-9.38c0-1.94-0.16-3.21-0.48-3.83
		c-0.56-1.11-1.53-1.66-2.92-1.66c-1.55,0-2.72,0.66-3.5,1.98c-0.51,0.85-0.77,2.11-0.77,3.76v9.13h-2.43V138.2z"/>
	<path class="st0" d="M631.01,145.05h2.43v10.15c0,1.65,0.19,2.77,0.58,3.35c0.58,0.89,1.53,1.33,2.84,1.33
		c1.47,0,2.59-0.62,3.35-1.86c0.48-0.77,0.72-1.96,0.72-3.55v-9.42h2.44v11.55c0,1.49,0.01,2.42,0.02,2.79
		c0.02,0.78,0.15,1.53,0.38,2.26h-2.41c-0.22-0.66-0.33-1.4-0.34-2.22c-0.4,0.74-0.83,1.3-1.3,1.67c-0.81,0.65-1.85,0.97-3.13,0.97
		c-1.36,0-2.51-0.33-3.45-0.99c-1.07-0.76-1.73-1.83-1.97-3.2c-0.1-0.59-0.15-1.49-0.15-2.68V145.05z"/>
	<path class="st0" d="M648.1,145.05h2.32c0.22,0.65,0.32,1.45,0.32,2.41c1.13-1.91,2.82-2.87,5.08-2.87c1.48,0,2.69,0.39,3.62,1.16
		c0.9,0.76,1.42,1.83,1.57,3.21c0.06,0.55,0.09,1.6,0.09,3.14v9.54h-2.44v-9.38c0-1.93-0.14-3.21-0.43-3.85
		c-0.51-1.09-1.49-1.64-2.92-1.64c-1.57,0-2.77,0.66-3.61,1.97c-0.54,0.85-0.8,2.07-0.8,3.64v9.26h-2.43v-10.94
		c-0.01-2.24-0.04-3.61-0.09-4.1C648.34,146.18,648.25,145.66,648.1,145.05z"/>
	<path class="st0" d="M679.72,145.05v1.86l-3.4-0.07c0.96,0.89,1.44,2.15,1.44,3.79c0,1.66-0.54,2.91-1.61,3.74
		c-0.69,0.55-1.97,1.02-3.81,1.42c-1.25,0.27-2.1,0.51-2.53,0.7c-0.65,0.31-0.97,0.68-0.97,1.13c0,0.29,0.16,0.51,0.48,0.67
		c0.26,0.13,1.21,0.27,2.84,0.43c1.67,0.17,2.81,0.32,3.4,0.46c2.69,0.62,4.03,2.1,4.03,4.44c0,1.71-0.75,3.02-2.26,3.95
		c-1.32,0.8-3.08,1.2-5.26,1.2c-2.39,0-4.29-0.49-5.69-1.47c-1.19-0.83-1.78-1.94-1.78-3.33c0-1.29,0.48-2.3,1.45-3.04
		c0.51-0.39,1.2-0.73,2.05-1.03c-1.18-0.47-1.78-1.11-1.78-1.93c0-0.74,0.41-1.36,1.23-1.86c0.44-0.27,1.02-0.55,1.73-0.82
		c-2.2-0.88-3.3-2.47-3.3-4.79c0-1.87,0.67-3.33,2-4.39c1.06-0.84,2.42-1.26,4.08-1.26c0.82,0,1.69,0.13,2.6,0.38L679.72,145.05z
		 M671.89,160.98c-1.46,0-2.62,0.21-3.49,0.63c-1.05,0.5-1.57,1.24-1.57,2.22c0,0.9,0.48,1.61,1.44,2.12
		c1.01,0.52,2.29,0.79,3.83,0.79c1.86,0,3.24-0.35,4.15-1.06c0.63-0.49,0.94-1.11,0.94-1.85c0-1.04-0.56-1.8-1.67-2.29
		C674.65,161.17,673.44,160.98,671.89,160.98z M672.01,146.81c-1.05,0-1.91,0.31-2.58,0.94c-0.73,0.68-1.09,1.58-1.09,2.7
		c0,1.04,0.32,1.86,0.96,2.46c0.67,0.64,1.54,0.96,2.6,0.96c1.06,0,1.91-0.3,2.56-0.91c0.65-0.62,0.97-1.45,0.97-2.5
		c0-0.99-0.28-1.83-0.85-2.51C673.91,147.19,673.06,146.81,672.01,146.81z"/>
</g>
<g>
	<path class="st0" d="M273.47,112.44v-10.33h4.9v25.51h-4.9v-10.29h-8.74v10.29h-4.89v-25.51h4.89v10.33H273.47z"/>
	<path class="st0" d="M299.94,102.12v4.89h-11.19v5.43h9.72v4.9h-9.72v5.4h11.19v4.89h-13.67c-0.22,0-0.43-0.07-0.58-0.25
		l-1.58-1.58c-0.18-0.14-0.25-0.36-0.25-0.58v-20.69c0-0.21,0.07-0.43,0.25-0.57l1.58-1.58c0.14-0.15,0.36-0.25,0.58-0.25H299.94z"
		/>
	<path class="st0" d="M307.5,127.63c-0.22,0-0.43-0.07-0.58-0.25l-1.58-1.58c-0.18-0.14-0.25-0.36-0.25-0.58v-23.1h4.89v20.62h10.65
		v4.89H307.5z"/>
	<path class="st0" d="M346.91,102.12v25.51h-4.89v-14.11l-3.99,8.35c-0.14,0.29-0.43,0.47-0.72,0.47h-2.88
		c-0.33,0-0.61-0.18-0.76-0.47l-3.99-8.35v14.11h-4.89v-25.51h4.89l6.19,12.95l6.15-12.95H346.91z"/>
	<path class="st0" d="M365.71,112.44v-10.33h4.9v25.51h-4.9v-10.29h-8.74v10.29h-4.89v-25.51h4.89v10.33H365.71z"/>
	<path class="st0" d="M390.27,103.34l2.55,2.52c0.76,0.76,1.19,1.8,1.19,2.88v12.27c0,1.08-0.43,2.12-1.19,2.88l-2.55,2.56
		c-0.76,0.76-1.8,1.19-2.88,1.19h-5.72c-1.08,0-2.16-0.4-2.92-1.19l-2.52-2.56c-0.76-0.76-1.19-1.8-1.19-2.88v-12.27
		c0-1.08,0.43-2.12,1.19-2.88l2.52-2.52c0.79-0.79,1.83-1.22,2.92-1.22h5.72C388.47,102.12,389.48,102.58,390.27,103.34z
		 M389.12,120.36v-10.94c0-0.22-0.11-0.43-0.25-0.58l-1.55-1.58c-0.18-0.14-0.4-0.25-0.61-0.25h-4.39c-0.22,0-0.4,0.11-0.58,0.25
		l-1.55,1.58c-0.18,0.14-0.25,0.36-0.25,0.58v10.94c0,0.22,0.07,0.4,0.25,0.58l1.55,1.55c0.18,0.18,0.36,0.25,0.58,0.25h4.39
		c0.22,0,0.43-0.07,0.61-0.25l1.55-1.55C389.01,120.75,389.12,120.58,389.12,120.36z"/>
	<path class="st0" d="M400.75,127.63c-0.22,0-0.43-0.07-0.58-0.25l-1.58-1.58c-0.18-0.14-0.25-0.36-0.25-0.58v-23.1h4.89v20.62
		h10.65v4.89H400.75z"/>
	<path class="st0" d="M413.53,107.01v-4.89h18.42v4.89h-6.77v20.62h-4.89v-20.62H413.53z"/>
	<path class="st0" d="M450.9,102.37l1.58,1.58c0.14,0.14,0.25,0.36,0.25,0.57v1.26l-10.72,16.95h10.58v4.89h-14.61
		c-0.22,0-0.43-0.07-0.58-0.25l-1.58-1.58c-0.14-0.14-0.25-0.36-0.25-0.58v-1.47l10.58-16.73h-10.72v-4.89h14.9
		C450.54,102.12,450.76,102.22,450.9,102.37z"/>
</g>
<g>
	<path class="st0" d="M104.96,144.69v-42.56h11.5v44.07c0,2.52-1.09,4.87-2.88,6.69l-5.87,5.97c-1.75,1.78-4.18,2.78-6.7,2.78H89.68
		c-2.52,0-4.95-1.01-6.7-2.78l-5.87-5.97c-1.79-1.82-2.8-4.17-2.8-6.69v-44.07h11.42v42.56c0,0.5,0.17,0.92,0.5,1.34l3.69,3.61
		c0.34,0.42,0.84,0.59,1.34,0.59h8.14c0.5,0,1.01-0.17,1.34-0.59l3.69-3.61C104.79,145.61,104.96,145.19,104.96,144.69z"/>
	<path class="st0" d="M165.05,102.13v11.42h-27.11v12.68h23.67v11.42h-23.67v24.01h-11.42v-53.89c0-0.5,0.17-1.01,0.59-1.34
		l3.69-3.69c0.34-0.34,0.84-0.59,1.34-0.59H165.05z"/>
	<path class="st0" d="M204.84,102.15c0.51,0,0.99,0.2,1.35,0.56l3.69,3.69c0.36,0.36,0.56,0.84,0.56,1.35v2.91l-25.03,39.56h25.03
		v11.42h-34.41c-0.5,0-0.99-0.2-1.35-0.56l-3.69-3.69c-0.36-0.36-0.56-0.84-0.56-1.35v-3.51l24.65-38.96h-22.76v-11.42H204.84z"/>
</g>
<linearGradient id="SVGID_1_" gradientUnits="userSpaceOnUse" x1="228.0244" y1="145.7183" x2="151.7749" y2="68.7585">
	<stop  offset="0" style="stop-color:#88AE33"/>
	<stop  offset="1" style="stop-color:#44AADD"/>
</linearGradient>
<path class="st1" d="M170.68,57.84c-20.92,0-40.65,9.18-54.22,25.21v9.93l0.38-0.56c12.14-17.88,32.27-28.56,53.84-28.56
	c35.87,0,65.06,29.18,65.06,65.06c0,10.33-2.35,20.21-6.99,29.36c-4.35,8.57-10.67,16.2-18.3,22.11v7.4l0.28-0.19
	c19.43-13.3,31.04-35.24,31.04-58.67C241.76,89.72,209.87,57.84,170.68,57.84z"/>
</svg>
